<svg viewBox="0 0 260 260" xmlns="http://www.w3.org/2000/svg" role="img" aria-labelledby="logoTitle logoDesc">
  <title id="logoTitle">Chemical Society of Lesotho logo</title>
  <desc id="logoDesc">A stylized chemistry flask with orbiting rings and bright Lesotho-inspired colors.</desc>
  <circle cx="130" cy="130" r="120" fill="#fff" stroke="#3ba4df" stroke-width="8" />
  <g fill="none" stroke-linecap="round" stroke-width="10">
    <path d="M60 170c18-36 55-60 95-60" stroke="#f2c94c" />
    <path d="M200 170c-18-36-55-60-95-60" stroke="#2f9d27" />
    <path d="M70 95c0-6 4-10 10-10h90c6 0 10 4 10 10v40c0 6-4 10-10 10H80c-6 0-10-4-10-10V95z" stroke="#005f9d" fill="#d2efff" />
  </g>
  <circle cx="100" cy="96" r="10" fill="#005f9d" />
  <circle cx="160" cy="96" r="10" fill="#a22399" />
  <circle cx="130" cy="46" r="14" fill="#6b33b6" />
  <text x="130" y="215" text-anchor="middle" font-family="Arial, Helvetica, sans-serif" font-size="18" fill="#005f9d">Chemical Society</text>
  <text x="130" y="235" text-anchor="middle" font-family="Arial, Helvetica, sans-serif" font-size="14" fill="#2f9d27">of Lesotho</text>
</svg>
